<?xml version="1.0" standalone="no"?>
<!DOCTYPE svg PUBLIC "-//W3C//DTD SVG 20010904//EN"
 "http://www.w3.org/TR/2001/REC-SVG-20010904/DTD/svg10.dtd">
<svg version="1.0" xmlns="http://www.w3.org/2000/svg"
 width="500.000000pt" height="500.000000pt" viewBox="0 0 500.000000 500.000000"
 preserveAspectRatio="xMidYMid meet">

<g transform="translate(0.000000,500.000000) scale(0.100000,-0.100000)"
fill="#000000" stroke="none">
<path d="M2357 3304 c3 -9 -6 -27 -23 -45 l-28 -29 35 1 c28 1 30 2 11 8 l-24
6 21 19 c21 19 29 56 11 56 -5 0 -7 -7 -3 -16z"/>
<path d="M2424 3306 c-3 -8 -4 -25 -2 -38 3 -17 5 -13 9 15 5 38 2 47 -7 23z"/>
<path d="M2565 3309 c4 -10 -4 -29 -20 -48 l-27 -31 34 1 c23 1 26 3 11 6
l-23 4 22 30 c18 23 19 32 9 42 -10 9 -11 9 -6 -4z"/>
<path d="M2667 3304 c3 -9 -6 -27 -23 -45 l-28 -29 35 1 c28 1 30 2 11 8 l-24
6 21 19 c21 19 29 56 11 56 -5 0 -7 -7 -3 -16z"/>
<path d="M2469 3272 c-3 -20 -2 -29 4 -23 5 5 7 19 5 32 -3 20 -5 19 -9 -9z"/>
<path d="M1540 2655 c-20 -24 -4 -45 35 -45 23 0 38 6 41 15 8 21 -14 45 -41
45 -12 0 -28 -7 -35 -15z"/>
<path d="M2415 2656 c-11 -8 -16 -19 -12 -30 10 -25 80 -18 85 8 7 33 -39 47
-73 22z"/>
<path d="M2528 2604 c4 -50 6 -55 25 -52 16 2 25 13 31 40 11 43 -3 68 -38 68
-19 0 -21 -4 -18 -56z"/>
<path d="M3770 2610 c0 -38 -1 -40 -32 -40 -76 0 -124 -60 -113 -140 4 -25 13
-55 20 -66 18 -28 63 -36 99 -18 20 10 33 11 40 4 5 -5 24 -10 41 -10 l30 0
-3 155 -3 155 -39 0 c-40 0 -40 0 -40 -40z m-2 -137 c3 -75 -8 -113 -33 -113
-18 0 -28 33 -28 95 0 72 10 97 36 93 20 -3 22 -10 25 -75z"/>
<path d="M1150 2485 l0 -145 25 0 25 0 1 113 1 112 36 -112 c32 -101 38 -113
58 -113 21 0 27 11 55 103 17 56 35 106 40 112 5 5 9 -38 9 -103 l0 -112 45 0
45 0 0 145 0 145 -60 0 -59 0 -21 -69 c-11 -37 -20 -73 -20 -80 0 -6 -4 -11
-10 -11 -5 0 -10 5 -10 11 0 6 -9 42 -21 80 l-21 69 -59 0 -59 0 0 -145z"/>
<path d="M2920 2485 l0 -145 45 0 45 0 0 65 0 65 30 0 c20 0 30 5 30 15 0 10
-10 15 -30 15 -29 0 -30 1 -30 50 l0 50 40 0 c29 0 40 4 40 15 0 12 -16 15
-85 15 l-85 0 0 -145z"/>
<path d="M1700 2557 c-36 -18 -35 -61 3 -65 21 -3 27 1 27 15 0 24 19 43 42
43 12 0 19 -11 24 -34 8 -45 0 -56 -41 -56 -48 0 -84 -16 -96 -44 -15 -33 2
-61 46 -76 29 -9 41 -9 67 4 21 11 35 13 42 6 5 -5 24 -10 41 -10 l30 0 -6 88
c-8 103 -14 121 -46 133 -34 13 -104 11 -133 -4z m98 -128 c5 -28 -16 -69 -37
-69 -32 0 -42 48 -15 75 20 19 48 16 52 -6z"/>
<path d="M2213 2563 c-22 -4 -23 -8 -23 -114 l0 -109 40 0 40 0 0 84 c0 92 5
116 25 116 14 0 25 -22 25 -51 0 -12 7 -19 18 -19 26 0 42 20 42 52 0 47 -63
65 -100 28 l-20 -20 0 20 c0 20 -5 21 -47 13z"/>
<path d="M2652 2558 c-24 -12 -38 -48 -28 -73 3 -8 28 -29 56 -46 43 -26 51
-36 48 -58 -4 -37 -42 -36 -46 2 -3 21 -9 27 -26 27 -29 0 -49 -22 -40 -44 3
-9 23 -20 45 -26 106 -29 185 53 109 112 -79 60 -83 65 -77 82 9 24 41 16 45
-12 3 -22 17 -27 46 -16 22 8 20 41 -3 54 -25 13 -99 12 -129 -2z"/>
<path d="M3164 2561 c-36 -16 -54 -51 -54 -108 0 -44 5 -58 28 -82 35 -39 85
-48 132 -24 43 22 60 54 60 115 0 67 -30 99 -96 104 -27 2 -59 0 -70 -5z m74
-23 c17 -17 16 -149 -2 -173 -12 -16 -16 -17 -30 -6 -12 10 -16 32 -16 86 0
41 3 80 6 89 7 19 25 21 42 4z"/>
<path d="M3430 2563 c-29 -11 -50 -37 -60 -73 -27 -101 46 -176 144 -149 43
12 66 43 73 98 7 52 -12 98 -48 116 -28 15 -80 18 -109 8z m71 -40 c15 -39 7
-152 -12 -163 -27 -18 -41 13 -41 93 0 41 3 80 6 86 13 20 36 11 47 -16z"/>
<path d="M1530 2476 c0 -114 9 -136 56 -136 36 0 36 1 30 31 -3 17 -6 67 -6
110 l0 79 -40 0 -40 0 0 -84z"/>
<path d="M1923 2473 c6 -106 10 -118 47 -133 24 -10 35 -9 61 4 22 11 36 13
43 6 5 -5 25 -10 44 -10 27 0 33 3 28 16 -3 9 -6 58 -6 110 l0 94 -40 0 -40 0
0 -87 c0 -94 -8 -120 -34 -110 -13 5 -16 24 -16 102 l0 95 -46 0 -47 0 6 -87z"/>
<path d="M2410 2462 c0 -108 6 -122 55 -122 l30 0 -3 110 -3 110 -40 0 -39 0
0 -98z"/>
<path d="M1770 1760 c0 -41 3 -50 18 -50 25 0 42 20 42 50 0 30 -17 50 -42 50
-15 0 -18 -9 -18 -50z m45 0 c0 -25 -5 -36 -17 -38 -15 -3 -18 4 -18 38 0 34
3 41 18 38 12 -2 17 -13 17 -38z"/>
<path d="M1880 1760 c0 -46 2 -50 23 -49 16 1 18 2 5 6 -13 3 -18 15 -18 43 0
28 5 40 18 43 13 4 11 5 -5 6 -21 1 -23 -3 -23 -49z"/>
<path d="M1972 1763 c-2 -49 0 -53 21 -52 16 1 17 3 5 6 -12 3 -18 18 -21 51
l-3 47 -2 -52z"/>
<path d="M2053 1760 c0 -30 2 -43 4 -27 2 15 2 39 0 55 -2 15 -4 2 -4 -28z"/>
<path d="M2114 1796 c-11 -30 1 -81 20 -84 10 -2 22 0 27 5 6 6 1 9 -13 9 -20
-1 -23 4 -23 42 0 45 -2 51 -11 28z"/>
<path d="M2156 1797 c3 -10 9 -15 12 -12 3 3 0 11 -7 18 -10 9 -11 8 -5 -6z"/>
<path d="M2213 1760 c0 -30 2 -43 4 -27 2 15 2 39 0 55 -2 15 -4 2 -4 -28z"/>
<path d="M2276 1794 c-11 -29 -6 -61 12 -75 14 -11 15 -11 5 1 -16 18 -17 62
-1 78 8 8 8 12 1 12 -6 0 -14 -7 -17 -16z"/>
<path d="M2318 1800 c6 -8 12 -26 12 -40 0 -14 -6 -32 -12 -40 -11 -12 -10
-12 5 -1 9 7 17 26 17 41 0 15 -8 34 -17 41 -15 11 -16 11 -5 -1z"/>
<path d="M2380 1783 c0 -34 10 -73 19 -73 3 0 4 22 3 50 -4 52 -22 71 -22 23z"/>
<path d="M2493 1794 c-4 -11 2 -23 17 -34 15 -11 21 -23 17 -34 -4 -10 -3 -15
3 -11 16 10 12 30 -10 50 -12 10 -18 25 -16 32 3 7 3 13 0 13 -2 0 -7 -7 -11
-16z"/>
<path d="M2526 1795 c4 -8 8 -15 10 -15 2 0 4 7 4 15 0 8 -4 15 -10 15 -5 0
-7 -7 -4 -15z"/>
<path d="M2642 1758 l2 -53 3 48 c3 32 9 47 18 47 20 0 28 -19 15 -35 -9 -10
-9 -19 0 -35 6 -12 14 -19 17 -16 3 3 0 12 -6 20 -10 11 -9 19 1 36 11 17 11
22 -2 30 -8 5 -23 10 -32 10 -15 0 -18 -8 -16 -52z"/>
<path d="M2750 1760 c0 -46 2 -50 23 -49 16 1 18 2 5 6 -13 3 -18 15 -18 43 0
28 5 40 18 43 13 4 11 5 -5 6 -21 1 -23 -3 -23 -49z"/>
<path d="M2842 1798 c-28 -28 -3 -98 30 -85 8 4 7 6 -4 6 -22 1 -33 43 -18 70
12 24 10 27 -8 9z"/>
<path d="M2876 1795 c4 -8 8 -15 10 -15 2 0 4 7 4 15 0 8 -4 15 -10 15 -5 0
-7 -7 -4 -15z"/>
<path d="M2943 1760 c0 -30 2 -43 4 -27 2 15 2 39 0 55 -2 15 -4 2 -4 -28z"/>
<path d="M3002 1758 l2 -53 3 48 c3 33 8 47 19 47 8 0 14 -10 14 -22 0 -18 2
-20 10 -8 11 18 -5 40 -31 40 -16 0 -19 -7 -17 -52z"/>
<path d="M3100 1760 c0 -46 2 -50 23 -49 16 1 18 2 5 6 -13 3 -18 15 -18 43 0
28 5 40 18 43 13 4 11 5 -5 6 -21 1 -23 -3 -23 -49z"/>
<path d="M3191 1794 c0 -11 8 -29 19 -39 12 -10 18 -25 15 -32 -2 -8 0 -11 5
-8 16 10 12 33 -9 47 -10 7 -21 22 -24 33 -4 19 -5 19 -6 -1z"/>
<path d="M2490 1725 c0 -8 4 -15 10 -15 5 0 7 7 4 15 -4 8 -8 15 -10 15 -2 0
-4 -7 -4 -15z"/>
<path d="M3180 1731 c0 -6 4 -13 10 -16 6 -3 7 1 4 9 -7 18 -14 21 -14 7z"/>
</g>
</svg>
